#!OML:ASF H:\ManfredETheater\Project 1\Capture day 1\Session 1\subject.ASF
:FULLY-SPECIFIED
:DEGREES
124
root -0.891174 4.13868 -9.47503 10.7536 43.2166 -210.345
lowerback 43.1122 -3.14018 3.75216
upperback 15.7445 -0.0245446 0.545185
thorax -2.72286 1.68524 -1.39368
lowerneck -12.4574 -7.20688 -4.12791
upperneck 8.97932 -9.38771 3.52756
head 5.08682 -4.46337 0.99051
rclavicle -2.8625e-014 -1.88845e-015
rhumerus -6.53195 -7.12673 -58.1934
rradius 111.839
rwrist 13.8202
rhand -41.7077 -23.0234
rfingers 7.12502
rthumb -14.6136 -52.4885
lclavicle -2.8625e-014 -1.88845e-015
lhumerus 56.3172 -50.9576 55.6096
lradius 90.2078
lwrist -17.5168
lhand -51.4134 -24.3497
lfingers 7.12502
lthumb -23.9451 4.17721
rfemur -104.522 -32.9492 53.3774
rtibia 124.557
rfoot 13.3801 4.25456
rtoes -11.3788
lfemur -61.4497 59.2782 10.259
ltibia 136.568
lfoot 23.5387 -28.7729
ltoes 13.9411
125
root -0.972652 3.72079 -9.85317 14.9157 45.907 -208.369
lowerback 44.2115 -3.63991 3.58071
upperback 15.8015 -0.337627 1.29772
thorax -2.95114 1.60211 -0.394264
lowerneck -15.0595 -6.52635 -3.20496
upperneck 8.91675 -8.49263 3.19034
head 5.40349 -3.98439 0.74441
rclavicle 5.08889e-014 -1.6032e-013
rhumerus -3.72867 -5.77344 -58.5871
rradius 110.532
rwrist 9.13824
rhand -40.3986 -23.2188
rfingers 7.12502
rthumb -13.352 -52.771
lclavicle 5.08889e-014 -1.6032e-013
lhumerus 49.6712 -48.945 58.7512
lradius 90.9255
lwrist -18.7817
lhand -52.8447 -23.2423
lfingers 7.12502
lthumb -25.317 5.09746
rfemur -105.466 -33.031 53.7247
rtibia 124.51
rfoot 12.8277 4.32476
rtoes -10.9022
lfemur -63.4406 62.948 8.42178
ltibia 139.311
lfoot 24.9259 -30.5147
ltoes 12.8553
126
root -1.04412 3.33491 -10.2129 19.7752 48.3826 -205.764
lowerback 45.0525 -4.13991 3.27468
upperback 15.6993 -0.755316 1.97897
thorax -3.27559 1.43307 0.639553
lowerneck -17.3146 -5.73674 -2.40555
upperneck 8.95472 -7.45839 2.62573
head 5.69504 -3.47064 0.483214
rclavicle 7.95139e-014 -1.68967e-014
rhumerus -1.12945 -4.14633 -59.142
rradius 109.449
rwrist 3.88098
rhand -38.7164 -23.7766
rfingers 7.12502
rthumb -11.7302 -53.4282
lclavicle 7.95139e-014 -1.68967e-014
lhumerus 42.2291 -46.0911 62.6756
lradius 91.7368
lwrist -19.4317
lhand -52.346 -21.0892
lfingers 7.12502
lthumb -24.8391 7.31732
rfemur -106.434 -32.905 53.8963
rtibia 124.588
rfoot 12.2356 4.42497
rtoes -10.4413
lfemur -65.0174 67.088 6.78006
ltibia 141.98
lfoot 26.825 -32.5178
ltoes 12.0596
127
root -1.10178 2.99247 -10.5514 25.4328 50.5341 -202.405
lowerback 45.4401 -4.55351 3.10327
upperback 15.4144 -1.09382 2.57496
thorax -3.68104 1.27142 1.48522
lowerneck -18.8172 -5.11189 -2.0149
upperneck 8.99475 -6.61389 2.19049
head 5.89932 -3.06753 0.336174
rclavicle 1.59028e-015 6.16232e-014
rhumerus 0.693606 -2.74123 -59.7142
rradius 108.692
rwrist -1.41022
rhand -37.1095 -24.4247
rfingers 7.12502
rthumb -10.1803 -54.1584
lclavicle 1.59028e-015 6.16232e-014
lhumerus 34.6301 -42.8107 67.0378
lradius 92.6611
lwrist -19.003
lhand -49.7025 -18.9015
lfingers 7.12502
lthumb -22.3036 9.8313
rfemur -107.475 -32.6114 53.8859
rtibia 124.884
rfoot 11.624 4.54915
rtoes -9.86576
lfemur -65.5322 71.8067 6.04251
ltibia 144.562
lfoot 29.3252 -34.6971
ltoes 11.7157
128
root -1.14342 2.70244 -10.8666 31.799 52.2774 -198.294
lowerback 45.2094 -4.80346 3.3425
upperback 14.9899 -1.16067 3.09451
thorax -4.09521 1.22158 1.93325
lowerneck -19.2017 -4.96796 -2.33803
upperneck 8.86872 -6.32443 2.18937
head 5.92449 -2.93708 0.410508
rclavicle 4.45278e-014 -2.50469e-014
rhumerus 1.30954 -2.05029 -60.1823
rradius 108.251
rwrist -6.03152
rhand -35.823 -24.682
rfingers 7.12502
rthumb -8.93899 -54.4727
lclavicle 4.45278e-014 -2.50469e-014
lhumerus 27.3473 -39.5798 71.6109
lradius 93.6696
lwrist -17.0929
lhand -44.8368 -17.5089
lfingers 7.12502
lthumb -17.6266 11.7121
rfemur -108.514 -32.2806 53.7221
rtibia 125.457
rfoot 11.0216 4.69074
rtoes -9.11905
lfemur -62.6188 77.1338 8.74535
ltibia 147.011
lfoot 32.4065 -37.003
ltoes 11.7802
129
root -1.17013 2.47149 -11.1577 38.5371 53.5688 -193.653
lowerback 44.4431 -4.81496 3.90486
upperback 14.469 -0.899804 3.57725
thorax -4.48982 1.30742 2.04427
lowerneck -18.3707 -5.26153 -3.14467
upperneck 8.53122 -6.57764 2.48421
head 5.72689 -3.07642 0.625517
rclavicle 3.33958e-014 6.91771e-014
rhumerus 0.785326 -2.0889 -60.5865
rradius 107.971
rwrist -9.35122
rhand -34.8806 -24.2508
rfingers 7.12502
rthumb -8.02954 -54.0783
lclavicle 3.33958e-014 6.91771e-014
lhumerus 20.3818 -36.4121 76.2278
lradius 94.7633
lwrist -13.5666
lhand -38.3149 -16.6568
lfingers 7.12502
lthumb -11.3429 13.0164
rfemur -109.334 -32.0697 53.4964
rtibia 126.312
rfoot 10.5017 4.84194
rtoes -8.11169
lfemur -44.8743 82.6531 26.6443
ltibia 149.241
lfoot 36.2607 -39.1334
ltoes 12.6733
130
root -1.18582 2.30154 -11.4249 45.4062 54.4716 -188.624
lowerback 43.3395 -4.6334 4.69217
upperback 13.8691 -0.38693 4.04915
thorax -4.87734 1.49551 1.92652
lowerneck -16.5734 -5.84728 -4.23317
upperneck 8.14148 -7.24249 2.93298
head 5.39114 -3.42664 0.915784
rclavicle -1.98785e-014 -7.5737e-014
rhumerus -0.591656 -2.67947 -60.9336
rradius 107.7
rwrist -11.1342
rhand -34.1552 -22.989
rfingers 7.12502
rthumb -7.32935 -52.842
lclavicle -1.98785e-014 -7.5737e-014
lhumerus 13.6699 -33.1339 80.6604
lradius 95.9163
lwrist -8.73038
lhand -30.9816 -16.1139
lfingers 7.12502
lthumb -4.26533 13.8231
rfemur -109.837 -32.1986 53.3399
rtibia 127.4
rfoot 10.189 5.01233
rtoes -7.14519
lfemur 16.8569 83.9845 89.2306
ltibia 151.121
lfoot 41.0929 -40.534
ltoes 14.8485
